<svg width="499" height="499" viewBox="0 0 499 499" fill="none" xmlns="http://www.w3.org/2000/svg">
<path d="M249.725 498.754C215.382 498.754 183.156 492.243 153.045 479.223C122.934 466.365 96.4857 448.542 73.6992 425.756C50.9128 402.807 33.0091 376.358 19.9883 346.41C7.13021 316.299 0.701172 284.073 0.701172 249.73C0.701172 215.388 7.13021 183.161 19.9883 153.051C33.0091 122.94 50.9128 96.4915 73.6992 73.7051C96.4857 50.9186 122.934 33.0964 153.045 20.2383C183.156 7.21745 215.382 0.707031 249.725 0.707031C284.067 0.707031 316.294 7.21745 346.404 20.2383C376.515 33.0964 402.964 50.9186 425.75 73.7051C448.536 96.4915 466.359 122.94 479.217 153.051C492.238 183.161 498.748 215.388 498.748 249.73C498.748 284.073 492.238 316.299 479.217 346.41C466.359 376.358 448.536 402.807 425.75 425.756C402.964 448.542 376.515 466.365 346.404 479.223C316.294 492.243 284.067 498.754 249.725 498.754Z" fill="white"/>
</svg>
