<svg width="748" height="811" viewBox="0 0 748 811" fill="none" xmlns="http://www.w3.org/2000/svg">
<path d="M374.359 810.844C322.797 810.844 274.49 801.078 229.438 781.547C184.385 762.276 144.672 735.583 110.297 701.469C76.1823 667.094 49.3594 627.38 29.8281 582.328C10.5573 537.276 0.921875 488.969 0.921875 437.406C0.921875 385.844 10.5573 337.536 29.8281 292.484C49.3594 247.172 76.1823 207.458 110.297 173.344C144.672 138.969 184.385 112.146 229.438 92.875C274.49 73.3438 322.797 63.5781 374.359 63.5781C425.922 63.5781 474.229 73.3438 519.281 92.875C564.594 112.146 604.307 138.969 638.422 173.344C672.797 207.458 699.62 247.172 718.891 292.484C738.161 337.536 747.797 385.844 747.797 437.406C747.797 488.969 738.161 537.276 718.891 582.328C699.62 627.38 672.797 667.094 638.422 701.469C604.307 735.583 564.594 762.276 519.281 781.547C474.229 801.078 425.922 810.844 374.359 810.844ZM196.625 480.375H373.969C381.781 480.375 388.292 477.771 393.5 472.562C398.708 467.354 401.312 460.974 401.312 453.422V216.703C401.312 208.891 398.708 202.38 393.5 197.172C388.292 191.964 381.781 189.359 373.969 189.359C366.417 189.359 360.036 191.964 354.828 197.172C349.62 202.38 347.016 208.891 347.016 216.703V426.078H196.625C189.073 426.078 182.693 428.682 177.484 433.891C172.276 439.099 169.672 445.609 169.672 453.422C169.672 460.974 172.276 467.354 177.484 472.562C182.693 477.771 189.073 480.375 196.625 480.375ZM53.6562 163.969C48.7083 163.969 44.2812 162.667 40.375 160.062C36.4688 157.198 33.474 153.292 31.3906 148.344C29.3073 143.917 27.6146 138.318 26.3125 131.547C25.2708 124.776 24.75 117.745 24.75 110.453C24.75 90.1406 29.5677 71.7812 39.2031 55.375C49.099 38.7083 62.3802 25.4271 79.0469 15.5312C95.7135 5.63542 114.203 0.6875 134.516 0.6875C146.234 0.6875 158.083 2.51042 170.062 6.15625C182.042 9.54167 191.807 14.6198 199.359 21.3906C206.391 27.901 209.906 34.9323 209.906 42.4844C209.906 49.2552 206.651 55.1146 200.141 60.0625L69.2812 158.891C66.4167 160.974 63.8125 162.406 61.4688 163.188C59.125 163.708 56.5208 163.969 53.6562 163.969ZM695.062 163.969C692.198 163.969 689.594 163.708 687.25 163.188C684.906 162.406 682.302 160.974 679.438 158.891L548.969 60.0625C542.198 55.1146 538.812 49.2552 538.812 42.4844C538.812 34.9323 542.328 27.901 549.359 21.3906C556.911 14.6198 566.677 9.54167 578.656 6.15625C590.635 2.51042 602.484 0.6875 614.203 0.6875C634.516 0.6875 653.005 5.63542 669.672 15.5312C686.339 25.4271 699.49 38.7083 709.125 55.375C719.021 71.7812 723.969 90.1406 723.969 110.453C723.969 117.745 723.448 124.906 722.406 131.938C721.365 138.708 719.802 144.177 717.719 148.344C715.375 153.031 712.25 156.807 708.344 159.672C704.438 162.536 700.01 163.969 695.062 163.969ZM47.7969 799.516C42.0677 794.047 39.2031 787.146 39.2031 778.812C39.2031 770.479 42.1979 763.318 48.1875 757.328L122.406 683.891L164.594 725.688L90.7656 799.125C84.776 805.375 77.4844 808.5 68.8906 808.5C60.5573 808.5 53.526 805.505 47.7969 799.516ZM700.922 799.516C695.193 805.505 688.031 808.5 679.438 808.5C671.104 808.5 663.943 805.375 657.953 799.125L584.516 725.688L626.312 683.891L700.531 757.328C706.781 763.318 709.776 770.479 709.516 778.812C709.516 787.146 706.651 794.047 700.922 799.516Z" fill="#008CBA"/>
</svg>
