<svg width="250" height="250" viewBox="0 0 250 250" fill="none" xmlns="http://www.w3.org/2000/svg">
<path d="M125.362 249.377C108.191 249.377 92.0778 246.122 77.0225 239.611C61.9671 233.182 48.7428 224.271 37.3496 212.878C25.9564 201.403 17.0046 188.179 10.4941 173.205C4.0651 158.15 0.850586 142.036 0.850586 124.865C0.850586 107.694 4.0651 91.5807 10.4941 76.5254C17.0046 61.4701 25.9564 48.2458 37.3496 36.8525C48.7428 25.4593 61.9671 16.5482 77.0225 10.1191C92.0778 3.60872 108.191 0.353516 125.362 0.353516C142.534 0.353516 158.647 3.60872 173.702 10.1191C188.757 16.5482 201.982 25.4593 213.375 36.8525C224.768 48.2458 233.679 61.4701 240.108 76.5254C246.619 91.5807 249.874 107.694 249.874 124.865C249.874 142.036 246.619 158.15 240.108 173.205C233.679 188.179 224.768 201.403 213.375 212.878C201.982 224.271 188.757 233.182 173.702 239.611C158.647 246.122 142.534 249.377 125.362 249.377Z" fill="#008CBA"/>
</svg>
